<svg width="1000" height="1409" viewBox="0 0 1000 1409" xmlns="http://www.w3.org/2000/svg" xmlns:xlink="http://www.w3.org/1999/xlink"><defs><path d="M226.915 1256.557v-45.172c0-21.732 6.009-32.598 18.025-32.598 9.645 0 14.467 10.4 14.467 31.201v46.569h23.006v-45.172c0-21.732 5.454-32.598 16.364-32.598s16.365 9.78 16.365 29.339v48.431h22.768v-57.28c0-25.146-9.882-37.72-29.646-37.72-13.44 0-23.163 4.812-29.172 14.436-6.166-9.624-14.546-14.436-25.14-14.436-12.174 0-21.187 3.725-27.037 11.176v-8.149H203.91v91.973h23.005zm171.231 3c14.562 0 26.33-4.625 35.304-13.874 8.973-9.25 13.46-21.164 13.46-35.744 0-14.58-4.526-26.454-13.578-35.625-9.053-9.171-20.9-13.757-35.54-13.757-14.641 0-26.448 4.625-35.422 13.874-8.973 9.25-13.46 21.125-13.46 35.626 0 14.501 4.565 26.376 13.696 35.626 9.131 9.25 20.978 13.874 35.54 13.874zm.613-19c-7.607 0-13.817-2.767-18.63-8.3-4.813-5.534-7.22-12.649-7.22-21.344 0-8.854 2.407-16.127 7.22-21.818 4.813-5.692 10.984-8.538 18.514-8.538 7.53 0 13.623 2.964 18.28 8.893 4.658 5.93 6.987 12.965 6.987 21.107s-2.29 15.178-6.87 21.107c-4.58 5.929-10.673 8.893-18.28 8.893zm103.387 19c14.562 0 26.33-4.625 35.304-13.874 8.973-9.25 13.46-21.164 13.46-35.744 0-14.58-4.526-26.454-13.578-35.625-9.053-9.171-20.9-13.757-35.54-13.757-14.641 0-26.448 4.625-35.422 13.874-8.973 9.25-13.46 21.125-13.46 35.626 0 14.501 4.565 26.376 13.696 35.626 9.131 9.25 20.978 13.874 35.54 13.874zm.613-19c-7.607 0-13.817-2.767-18.63-8.3-4.813-5.534-7.22-12.649-7.22-21.344 0-8.854 2.407-16.127 7.22-21.818 4.813-5.692 10.984-8.538 18.514-8.538 7.53 0 13.623 2.964 18.28 8.893 4.658 5.93 6.987 12.965 6.987 21.107s-2.29 15.178-6.87 21.107c-4.58 5.929-10.673 8.893-18.28 8.893zm87.885 19c10.205 0 18.8-2.979 25.786-8.936 6.987-5.957 10.48-13.952 10.48-23.986 0-6.114-1.649-11.248-4.945-15.402-3.297-4.155-11.854-8.74-25.67-13.757-7.535-2.665-11.303-6.114-11.303-10.347 0-7.524 4.16-11.287 12.481-11.287 5.495 0 10.754 2.352 15.778 7.055l9.42-12.699c-7.379-6.427-17.348-9.641-29.908-9.641-8.792 0-15.896 2.783-21.312 8.348-5.416 5.565-8.125 12.816-8.125 21.752 0 8.936 7.222 16.539 21.666 22.81 2.669 1.097 6.515 2.782 11.54 5.056 5.023 2.273 7.535 5.76 7.535 10.464 0 9.25-4.788 13.874-14.365 13.874-6.594 0-13.816-3.92-21.666-11.758l-10.126 12.934c8.635 10.347 19.546 15.52 32.734 15.52zm90.527 0c21.135 0 35.224-9.641 42.27-28.924l-21.605-3.527c-2.974 10.66-9.863 15.99-20.665 15.99-6.888 0-12.29-2.9-16.203-8.7-3.914-5.801-5.87-13.17-5.87-22.105h64.812v-3.057c0-15.05-3.875-26.925-11.624-35.626-7.75-8.7-18.552-13.051-32.406-13.051-13.855 0-24.814 4.586-32.876 13.757-8.063 9.17-12.094 21.36-12.094 36.566 0 14.423 4.188 26.141 12.563 35.156 8.376 9.014 19.608 13.521 33.698 13.521zm21.739-60h-43c0-5.903 1.997-11.379 5.992-16.427 3.994-5.049 9.164-7.573 15.508-7.573 6.344 0 11.514 2.408 15.508 7.223 3.995 4.816 5.992 10.408 5.992 16.777z" id="a"/></defs><g fill="none"><path d="M802.59 145.246c-2.427-1.082-10.676 35.324-10.983 49.736-.382 14.412-13.084 18.58-13.084 18.58 4.867-94.775-6.128-121.881-9.945-123.97-3.753-2.057-5.81 87.532-11.599 118.784-5.874 31.252-30.64 41.9-39.494 40.892-9.001-1.04-7.612 14.062-9.627-65.251-2.046-79.313-17.886-76.917-17.886-76.917 2.428 10.308-5.471 119.484-8.207 148.011-2.82 28.474-37.405 61.084-37.405 61.084 2.11-31.92-7.58-75.867-10.963-83.428-3.446-7.55-6.563-.69-6.563-.69 5.874 50.469 1.697 87.214-13.338 114.352-15.013 26.915-116.16 62.558-117.718 63.141 35.295-86.175 14.355-89.929 14.355-89.929 5.864 29.164-17.154 63.48-30.927 87.214-13.688 23.66-29.803 18.866-42.494-12.036-12.702-30.913-18.565-110.216-18.565-110.216-13.02 53.215 8.62 134.236 12.702 147.28 4.134 13.043 0 16.5-8.186 16.5-8.27 0-19.296 7.233-25.106 11.305-5.81 4.168-20.219-.636-20.219-.636-9.266-13.776-24.078-12.068-26.442-12.387-2.407-.35-12.034-26.798-18.915-43.978-6.828-17.126-5.503-53.882-5.503-53.882 7.581-22.313 17.537-65.57 19.583-83.068 2.11-17.508 11.345-34.349 11.345-34.349 35.666-37.795 51.496-76.905 48.368-72.112-3.011 4.804-37.003 45.664-39.06 42.6-2.025-3.065 9.267-67.946 5.121-71.074-4.081-3.065-32.284 88.221-36.737 96.472-4.485 8.208-18.893-5.843-18.893-5.843C282.192 184.027 304.86 91.31 296.643 91.31c-8.302 0-14.462 55.993-11.026 96.843 3.445 40.86 21.29 67.976 24.353 93.004 3.128 25.09-2.046 44.996-10.91 52.546-8.99 7.583-39.101-17.19-42.96-20.605-3.754-3.414.667-13.372-.372-13.022-1.018.286-6.138 6.161-6.138 6.161s-3.446-4.804-5.842-6.511c-2.428-1.74 1.007-9.64 3.445-18.57 2.407-8.918-9.574 7.233-9.574 7.233-22.02-18.866 1.707-128.731-13.772-69.366-15.448 59.408 6.51 90.31 6.51 90.31 2.406 36.746 5.152 17.509 15.416 50.469 10.326 32.949 58.059 62.472 63.88 68.984 5.873 6.532 14.79 29.545 13.39 31.242-1.357 1.707-33.991-14.412-54.942-19.906-20.918-5.472-34.31-22.63-58.006-25.409-23.664-2.746-14.398 17.53-14.398 17.53.202 0 9.373.318 45.358 57.987 36.366 58.39 43.183 27.806 39.748 39.81-3.382 12.037 5.81 31.592 5.81 31.592-2.682 3.478-7.517 24.74-7.517 24.74-8.238 4.084-30.196 33.395-30.196 33.395-24.682 12.875-22.657 20.17-22.657 20.17l-8.27 6.83c-4.082 3.457-.647 16.49-.647 16.49-6.88 16.491 2.715 22.684 2.715 22.684 15.829 3.415 14.44 9.608 14.44 9.608 17.855 37.764 62.459 16.47 62.459 16.47 33.61-2.758 42.558 6.882 26.782 38.452-15.82 31.57-24.036 144.883 17.123 197.08 41.2 52.175 113.367 98.747 138.361 31.793 24.994-66.957-107.328-73.358-101.868-117.304 5.503-43.893 198.976 140.462 224.369 59.378 25.445-80.988-2.036-159.262-39.823-200.46-37.755-41.21-51.804-163.409-51.804-163.409 7.931-3.128 17.155-22.98 17.155-22.98 71.779-37.096 23.315-119.845 23.315-119.845C640.172 376.61 708.123 302.8 716.086 294.9c7.867-7.9 19.476-14.73 41.105-36.024 21.671-21.294 42.293-25.41 47.393-53.586 5.216-28.156.36-59.026-1.993-60.044zM253.91 336.557s14.29 7.243 30.992 22.654c16.626 15.41 18.008 35.346 18.008 35.346-40.666-15.873-49-58-49-58zM507.913 442.81c-10.375 7.431-19.901 27.422-19.901 27.422-2.683-.442-9.463 2.821-12.639 3.295-3.207.442-9.463-4.2-9.463-4.2v-6.506c8.122-8.874 57-36.264 57-36.264s-4.59 8.821-14.997 16.253z" fill="#FFF"/><use fill="#2F2F2F" xlink:href="#a"/><use fill="#FFF" xlink:href="#a"/></g></svg>