<svg width="329" height="574" xmlns="http://www.w3.org/2000/svg"><path d="M307.138 26.255c-1.145-.51-5.035 16.655-5.18 23.45-.18 6.795-6.17 8.76-6.17 8.76 2.295-44.685-2.89-57.465-4.69-58.45-1.77-.97-2.74 41.27-5.47 56.005-2.77 14.735-14.45 19.755-18.625 19.28-4.245-.49-3.59 6.63-4.54-30.765-.965-37.395-8.435-36.265-8.435-36.265 1.145 4.86-2.58 56.335-3.87 69.785-1.33 13.425-17.64 28.8-17.64 28.8.995-15.05-3.575-35.77-5.17-39.335-1.625-3.56-3.095-.325-3.095-.325 2.77 23.795.8 41.12-6.29 53.915-7.08 12.69-54.78 29.495-55.515 29.77 16.645-40.63 6.77-42.4 6.77-42.4 2.765 13.75-8.09 29.93-14.585 41.12-6.455 11.155-14.055 8.895-20.04-5.675-5.99-14.575-8.755-51.965-8.755-51.965-6.14 25.09 4.065 63.29 5.99 69.44 1.95 6.15 0 7.78-3.86 7.78-3.9 0-9.1 3.41-11.84 5.33-2.74 1.965-9.535-.3-9.535-.3-4.37-6.495-11.355-5.69-12.47-5.84-1.135-.165-5.675-12.635-8.92-20.735-3.22-8.075-2.595-25.405-2.595-25.405 3.575-10.52 8.27-30.915 9.235-39.165.995-8.255 5.35-16.195 5.35-16.195 16.82-17.82 24.285-36.26 22.81-34-1.42 2.265-17.45 21.53-18.42 20.085-.955-1.445 4.37-32.035 2.415-33.51C102.073 18 88.773 61.04 86.673 64.93c-2.115 3.87-8.91-2.755-8.91-2.755C61.723 44.54 72.413.825 68.538.825c-3.915 0-6.82 26.4-5.2 45.66 1.625 19.265 10.04 32.05 11.485 43.85 1.475 11.83-.965 21.215-5.145 24.775-4.24 3.575-18.44-8.105-20.26-9.715-1.77-1.61.315-6.305-.175-6.14-.48.135-2.895 2.905-2.895 2.905s-1.625-2.265-2.755-3.07c-1.145-.82.475-4.545 1.625-8.755 1.135-4.205-4.515 3.41-4.515 3.41-10.385-8.895.805-60.695-6.495-32.705-7.285 28.01 3.07 42.58 3.07 42.58 1.135 17.325 2.43 8.255 7.27 23.795 4.87 15.535 27.38 29.455 30.125 32.525 2.77 3.08 6.975 13.93 6.315 14.73-.64.805-16.03-6.795-25.91-9.385-9.865-2.58-16.18-10.67-27.355-11.98-11.16-1.295-6.79 8.265-6.79 8.265.095 0 4.42.15 21.39 27.34 17.15 27.53 20.365 13.11 18.745 18.77-1.595 5.675 2.74 14.895 2.74 14.895-1.265 1.64-3.545 11.665-3.545 11.665-3.885 1.925-14.24 15.745-14.24 15.745-11.64 6.07-10.685 9.51-10.685 9.51l-3.9 3.22c-1.925 1.63-.305 7.775-.305 7.775-3.245 7.775 1.28 10.695 1.28 10.695 7.465 1.61 6.81 4.53 6.81 4.53 8.42 17.805 29.455 7.765 29.455 7.765 15.85-1.3 20.07 3.245 12.63 18.13-7.46 14.885-11.335 68.31 8.075 92.92 19.43 24.6 53.463 46.558 65.25 14.99 11.787-31.569-50.615-34.587-48.04-55.307 2.595-20.695 93.835 66.226 105.81 27.996 12-38.185-.96-75.09-18.78-94.514-17.805-19.43-24.43-77.045-24.43-77.045 3.74-1.475 8.09-10.835 8.09-10.835 33.85-17.49 10.995-56.505 10.995-56.505 42.265-17.97 74.31-52.77 78.065-56.495 3.71-3.725 9.185-6.945 19.385-16.985 10.22-10.04 19.945-11.98 22.35-25.265 2.46-13.275.17-27.83-.94-28.31zM48.418 116.19s6.67 3.45 14.465 10.79c7.76 7.34 8.405 16.835 8.405 16.835-18.98-7.56-22.87-27.625-22.87-27.625zm119.755 50.285c-4.95 3.45-9.495 12.73-9.495 12.73-1.28-.205-4.515 1.31-6.03 1.53-1.53.205-4.515-1.95-4.515-1.95v-3.02c3.875-4.12 27.195-16.835 27.195-16.835s-2.19 4.095-7.155 7.545zM22.8 549.08c6.933 0 12.773-2.027 17.52-6.08s7.12-9.493 7.12-16.32c0-4.16-1.12-7.653-3.36-10.48-2.24-2.827-8.053-5.947-17.44-9.36-5.12-1.813-7.68-4.16-7.68-7.04 0-5.12 2.827-7.68 8.48-7.68 3.733 0 7.307 1.6 10.72 4.8l6.4-8.64c-5.013-4.373-11.787-6.56-20.32-6.56-5.973 0-10.8 1.893-14.48 5.68-3.68 3.787-5.52 8.72-5.52 14.8s4.907 11.253 14.72 15.52c1.813.747 4.427 1.893 7.84 3.44 3.413 1.547 5.12 3.92 5.12 7.12 0 6.293-3.253 9.44-9.76 9.44-4.48 0-9.387-2.667-14.72-8l-6.88 8.8c5.867 7.04 13.28 10.56 22.24 10.56zM72.72 547v-32c0-14.293 4.48-21.44 13.44-21.44 8.213 0 12.32 6.667 12.32 20V547h15.36v-38.56c0-17.813-7.253-26.72-21.76-26.72-8.533 0-14.987 2.613-19.36 7.84v-5.76H57.2V547h15.52zm78.72 2.08c8.853 0 15.52-2.613 20-7.84V547h15.2v-63.2h-15.2v5.92c-4.587-5.333-11.36-8-20.32-8-8.427 0-15.333 3.227-20.72 9.68-5.387 6.453-8.08 14.267-8.08 23.44 0 9.173 2.64 17.173 7.92 24 5.28 6.827 12.347 10.24 21.2 10.24zm4.32-13.44c-5.227 0-9.493-1.867-12.8-5.6-3.307-3.733-4.96-8.64-4.96-14.72s1.627-10.96 4.88-14.64c3.253-3.68 7.467-5.52 12.64-5.52 5.173 0 9.413 1.893 12.72 5.68 3.307 3.787 4.96 8.613 4.96 14.48 0 6.293-1.6 11.253-4.8 14.88-3.2 3.627-7.413 5.44-12.64 5.44zm59.36 38.08l.32-32.64c3.627 5.333 10.08 8 19.36 8 8.64 0 15.68-3.253 21.12-9.76 5.44-6.507 8.16-14.613 8.16-24.32 0-8.96-2.747-16.747-8.24-23.36-5.493-6.613-12.4-9.92-20.72-9.92-8.853 0-15.52 2.613-20 7.84v-5.76H199.6v89.92h15.52zm15.68-38.08c-4.587 0-8.64-2.08-12.16-6.24-3.52-4.16-5.28-8.88-5.28-14.16 0-5.28 1.653-9.947 4.96-14 3.307-4.053 7.467-6.08 12.48-6.08 5.44 0 9.707 2 12.8 6s4.64 8.72 4.64 14.16c0 5.867-1.547 10.72-4.64 14.56s-7.36 5.76-12.8 5.76zm68.64 13.44c14.4 0 24-6.56 28.8-19.68l-14.72-2.4c-2.027 7.253-6.72 10.88-14.08 10.88-4.693 0-8.373-1.973-11.04-5.92s-4-8.96-4-15.04h44.16v-2.08c0-10.24-2.64-18.32-7.92-24.24-5.28-5.92-12.64-8.88-22.08-8.88-9.44 0-16.907 3.12-22.4 9.36-5.493 6.24-8.24 14.533-8.24 24.88 0 9.813 2.853 17.787 8.56 23.92 5.707 6.133 13.36 9.2 22.96 9.2zm14.72-40.8h-29.28c0-4.053 1.36-7.813 4.08-11.28 2.72-3.467 6.24-5.2 10.56-5.2s7.84 1.653 10.56 4.96c2.72 3.307 4.08 7.147 4.08 11.52z" fill="#fff"/></svg>